<svg width="291" height="41" viewBox="0 0 291 41" fill="none" xmlns="http://www.w3.org/2000/svg">
<path d="M45.0586 4.6V5.6C44.0586 5.63333 43.2919 5.76667 42.7586 6C42.2253 6.2 41.8586 6.6 41.6586 7.2C41.4919 7.76666 41.4086 8.66666 41.4086 9.9V34.7C41.4086 35.9 41.5086 36.8 41.7086 37.4C41.9086 38 42.2586 38.4 42.7586 38.6C43.2919 38.8 44.0586 38.9333 45.0586 39V40C44.0919 39.9333 42.8419 39.9 41.3086 39.9C39.8086 39.8667 38.2753 39.85 36.7086 39.85C35.0086 39.85 33.4086 39.8667 31.9086 39.9C30.4419 39.9 29.2419 39.9333 28.3086 40V39C29.4419 38.9333 30.2919 38.8 30.8586 38.6C31.4586 38.4 31.8586 38 32.0586 37.4C32.2586 36.8 32.3586 35.9 32.3586 34.7V7.8L32.8086 7.75L20.3086 40H19.5086L5.70859 7.85V31C5.70859 33.0333 5.80859 34.6 6.00859 35.7C6.20859 36.7667 6.65859 37.5333 7.35859 38C8.05859 38.4667 9.15859 38.8 10.6586 39V40C10.0253 39.9333 9.17526 39.9 8.10859 39.9C7.07526 39.8667 6.09193 39.85 5.15859 39.85C4.42526 39.85 3.65859 39.8667 2.85859 39.9C2.09193 39.9 1.44193 39.9333 0.908594 40V39C1.97526 38.8 2.75859 38.4833 3.25859 38.05C3.79193 37.5833 4.14193 36.8667 4.30859 35.9C4.47526 34.9 4.55859 33.5333 4.55859 31.8V9.9C4.55859 8.66666 4.47526 7.76666 4.30859 7.2C4.14193 6.6 3.79193 6.2 3.25859 6C2.72526 5.76667 1.94193 5.63333 0.908594 5.6V4.6C1.44193 4.63333 2.09193 4.66667 2.85859 4.7C3.65859 4.73333 4.42526 4.75 5.15859 4.75C6.85859 4.75 8.49193 4.73333 10.0586 4.7C11.6253 4.66667 13.0419 4.63333 14.3086 4.6L24.5086 28.4L23.1086 29.8L32.7586 4.75C33.3919 4.75 34.0419 4.75 34.7086 4.75C35.4086 4.75 36.0753 4.75 36.7086 4.75C38.2753 4.75 39.8086 4.73333 41.3086 4.7C42.8419 4.66667 44.0919 4.63333 45.0586 4.6ZM54.2313 40.35C52.6979 40.35 51.4313 40.0667 50.4313 39.5C49.4313 38.9 48.6979 38.1167 48.2313 37.15C47.7646 36.1833 47.5313 35.15 47.5313 34.05C47.5313 32.65 47.8479 31.5 48.4813 30.6C49.1479 29.7 49.9979 28.9833 51.0313 28.45C52.0646 27.8833 53.1479 27.4167 54.2813 27.05C55.4146 26.6833 56.4979 26.3333 57.5313 26C58.5646 25.6333 59.3979 25.2167 60.0313 24.75C60.6646 24.25 60.9812 23.6167 60.9812 22.85V18.7C60.9812 17.9667 60.8646 17.2833 60.6313 16.65C60.4313 15.9833 60.0479 15.45 59.4812 15.05C58.9479 14.6167 58.1979 14.4 57.2313 14.4C56.6313 14.4 56.0479 14.4833 55.4813 14.65C54.9146 14.8167 54.4146 15.0833 53.9813 15.45C55.0479 15.8167 55.8313 16.3667 56.3313 17.1C56.8646 17.8333 57.1313 18.65 57.1313 19.55C57.1313 20.7833 56.6979 21.7667 55.8313 22.5C54.9979 23.2 53.9979 23.55 52.8313 23.55C51.5646 23.55 50.5813 23.15 49.8813 22.35C49.2146 21.55 48.8813 20.5833 48.8813 19.45C48.8813 18.45 49.1313 17.6167 49.6313 16.95C50.1313 16.25 50.8646 15.6167 51.8313 15.05C52.7979 14.4833 53.9646 14.0667 55.3313 13.8C56.6979 13.5333 58.1479 13.4 59.6813 13.4C61.2479 13.4 62.6813 13.5667 63.9813 13.9C65.3146 14.2 66.4479 14.8167 67.3813 15.75C68.1146 16.5167 68.5813 17.45 68.7813 18.55C68.9813 19.65 69.0813 21.05 69.0813 22.75V36.25C69.0813 37.0833 69.1479 37.6667 69.2813 38C69.4479 38.3 69.6979 38.45 70.0313 38.45C70.3313 38.45 70.6146 38.3667 70.8813 38.2C71.1479 38.0333 71.4146 37.85 71.6813 37.65L72.2313 38.5C71.4979 39.1 70.6313 39.5667 69.6313 39.9C68.6313 40.2 67.5479 40.35 66.3813 40.35C65.0479 40.35 63.9979 40.1833 63.2313 39.85C62.4979 39.4833 61.9646 39 61.6313 38.4C61.3313 37.8 61.1646 37.1333 61.1313 36.4C60.3979 37.6 59.4813 38.5667 58.3813 39.3C57.2813 40 55.8979 40.35 54.2313 40.35ZM58.3813 36.75C58.9146 36.75 59.3813 36.65 59.7813 36.45C60.2146 36.2167 60.6146 35.8333 60.9812 35.3V24.9C60.7146 25.3667 60.3479 25.8167 59.8813 26.25C59.4479 26.65 58.9813 27.0667 58.4813 27.5C57.9813 27.9 57.4979 28.35 57.0313 28.85C56.5979 29.35 56.2313 29.95 55.9313 30.65C55.6646 31.3167 55.5313 32.1333 55.5313 33.1C55.5313 34.4 55.7979 35.3333 56.3313 35.9C56.8646 36.4667 57.5479 36.75 58.3813 36.75ZM98.802 0.899997V34.5C98.802 36 99.0186 37.1167 99.452 37.85C99.9186 38.55 100.702 38.9 101.802 38.9V39.95C100.769 39.85 99.7353 39.8 98.702 39.8C97.202 39.8 95.7853 39.85 94.452 39.95C93.1186 40.05 91.8686 40.2333 90.702 40.5V6.9C90.702 5.4 90.4853 4.3 90.052 3.6C89.652 2.86666 88.8686 2.5 87.702 2.5V1.45C88.7686 1.55 89.802 1.6 90.802 1.6C92.3353 1.6 93.7686 1.55 95.102 1.45C96.4353 1.31667 97.6686 1.13333 98.802 0.899997ZM85.352 13.4C86.8186 13.4 88.0853 13.6167 89.152 14.05C90.2186 14.45 91.102 15.1333 91.802 16.1L91.202 16.6C90.7686 16.0333 90.2353 15.6167 89.602 15.35C89.002 15.0833 88.3686 14.95 87.702 14.95C86.102 14.95 84.852 15.95 83.952 17.95C83.0853 19.9167 82.652 22.95 82.652 27.05C82.652 29.9167 82.8186 32.1833 83.152 33.85C83.5186 35.4833 84.002 36.6333 84.602 37.3C85.2353 37.9667 85.9353 38.3 86.702 38.3C87.7353 38.3 88.652 37.9167 89.452 37.15C90.2853 36.35 90.7186 35.3 90.752 34L90.902 36.1C90.302 37.6333 89.4686 38.7833 88.402 39.55C87.3686 40.3167 86.0353 40.7 84.402 40.7C82.4686 40.7 80.7186 40.2167 79.152 39.25C77.6186 38.2833 76.402 36.8 75.502 34.8C74.6353 32.7667 74.202 30.1333 74.202 26.9C74.202 23.8667 74.6686 21.3667 75.602 19.4C76.5686 17.4 77.8853 15.9 79.552 14.9C81.252 13.9 83.1853 13.4 85.352 13.4ZM114.629 0.899997V17.6C115.462 16.0667 116.562 14.9833 117.929 14.35C119.329 13.7167 120.929 13.4 122.729 13.4C124.196 13.4 125.362 13.5833 126.229 13.95C127.129 14.3167 127.812 14.7833 128.279 15.35C128.812 15.9833 129.196 16.8 129.429 17.8C129.662 18.8 129.779 20.15 129.779 21.85V35.35C129.779 36.75 129.996 37.7 130.429 38.2C130.896 38.7 131.679 38.95 132.779 38.95V40C132.146 39.9667 131.162 39.9333 129.829 39.9C128.529 39.8333 127.246 39.8 125.979 39.8C124.646 39.8 123.346 39.8333 122.079 39.9C120.812 39.9333 119.846 39.9667 119.179 40V38.95C120.112 38.95 120.762 38.7 121.129 38.2C121.496 37.7 121.679 36.75 121.679 35.35V19.45C121.679 18.6833 121.596 18.0333 121.429 17.5C121.262 16.9333 120.979 16.5167 120.579 16.25C120.212 15.95 119.662 15.8 118.929 15.8C118.162 15.8 117.446 16 116.779 16.4C116.146 16.7667 115.629 17.3167 115.229 18.05C114.829 18.75 114.629 19.5667 114.629 20.5V35.35C114.629 36.75 114.812 37.7 115.179 38.2C115.579 38.7 116.229 38.95 117.129 38.95V40C116.529 39.9667 115.629 39.9333 114.429 39.9C113.229 39.8333 111.996 39.8 110.729 39.8C109.396 39.8 108.029 39.8333 106.629 39.9C105.262 39.9333 104.229 39.9667 103.529 40V38.95C104.629 38.95 105.396 38.7 105.829 38.2C106.296 37.7 106.529 36.75 106.529 35.35V6.9C106.529 5.4 106.312 4.3 105.879 3.6C105.479 2.86666 104.696 2.5 103.529 2.5V1.45C104.596 1.55 105.629 1.6 106.629 1.6C108.162 1.6 109.596 1.55 110.929 1.45C112.262 1.31667 113.496 1.13333 114.629 0.899997ZM160.141 13.55V34.55C160.141 36.05 160.357 37.1667 160.791 37.9C161.257 38.6 162.041 38.95 163.141 38.95V40C162.107 39.9 161.074 39.85 160.041 39.85C158.507 39.85 157.074 39.9 155.741 40C154.441 40.1 153.207 40.2833 152.041 40.55V36.5C151.241 38 150.141 39.0833 148.741 39.75C147.374 40.3833 145.807 40.7 144.041 40.7C142.574 40.7 141.391 40.5167 140.491 40.15C139.624 39.7833 138.957 39.3 138.491 38.7C137.957 38.1 137.574 37.3 137.341 36.3C137.107 35.2667 136.991 33.9167 136.991 32.25V19.55C136.991 18.05 136.774 16.95 136.341 16.25C135.907 15.5167 135.124 15.15 133.991 15.15V14.1C135.057 14.2 136.091 14.25 137.091 14.25C138.624 14.25 140.057 14.2 141.391 14.1C142.724 13.9667 143.957 13.7833 145.091 13.55V34.65C145.091 35.4167 145.174 36.0667 145.341 36.6C145.507 37.1333 145.791 37.55 146.191 37.85C146.591 38.15 147.124 38.3 147.791 38.3C148.557 38.3 149.257 38.1 149.891 37.7C150.524 37.3 151.041 36.75 151.441 36.05C151.841 35.3167 152.041 34.5 152.041 33.6V19.55C152.041 18.05 151.824 16.95 151.391 16.25C150.957 15.5167 150.174 15.15 149.041 15.15V14.1C150.107 14.2 151.141 14.25 152.141 14.25C153.674 14.25 155.107 14.2 156.441 14.1C157.774 13.9667 159.007 13.7833 160.141 13.55ZM175.404 13.4C176.87 13.4 178.137 13.5667 179.204 13.9C180.27 14.2333 181.054 14.55 181.554 14.85C182.72 15.5833 183.42 15.1167 183.654 13.45H184.704C184.637 14.4167 184.587 15.5833 184.554 16.95C184.52 18.2833 184.504 20.0833 184.504 22.35H183.454C183.32 21.1167 183.02 19.9 182.554 18.7C182.12 17.5 181.47 16.5167 180.604 15.75C179.737 14.95 178.604 14.55 177.204 14.55C176.304 14.55 175.537 14.8167 174.904 15.35C174.304 15.8833 174.004 16.6167 174.004 17.55C174.004 18.55 174.304 19.4333 174.904 20.2C175.504 20.9667 176.27 21.7 177.204 22.4C178.17 23.1 179.137 23.85 180.104 24.65C181.17 25.45 182.12 26.2667 182.954 27.1C183.82 27.9 184.504 28.7833 185.004 29.75C185.537 30.6833 185.804 31.8167 185.804 33.15C185.804 34.65 185.354 35.9667 184.454 37.1C183.554 38.2333 182.37 39.1167 180.904 39.75C179.437 40.3833 177.804 40.7 176.004 40.7C174.904 40.7 173.937 40.5833 173.104 40.35C172.304 40.15 171.637 39.8833 171.104 39.55C170.604 39.3167 170.154 39.1167 169.754 38.95C169.387 38.7833 169.02 38.6667 168.654 38.6C168.32 38.5667 168.037 38.7167 167.804 39.05C167.57 39.3833 167.387 39.8167 167.254 40.35H166.204C166.27 39.2833 166.32 37.9833 166.354 36.45C166.387 34.9167 166.404 32.8833 166.404 30.35H167.454C167.654 32.15 168.02 33.7333 168.554 35.1C169.12 36.4667 169.87 37.55 170.804 38.35C171.737 39.1167 172.837 39.5 174.104 39.5C174.67 39.5 175.187 39.4 175.654 39.2C176.154 38.9667 176.554 38.6167 176.854 38.15C177.187 37.6833 177.354 37.0833 177.354 36.35C177.354 34.8833 176.887 33.6667 175.954 32.7C175.02 31.7 173.87 30.6167 172.504 29.45C171.437 28.55 170.437 27.6667 169.504 26.8C168.604 25.9333 167.854 24.9833 167.254 23.95C166.687 22.9167 166.404 21.75 166.404 20.45C166.404 18.95 166.82 17.6833 167.654 16.65C168.52 15.5833 169.637 14.7833 171.004 14.25C172.37 13.6833 173.837 13.4 175.404 13.4ZM199.443 0.899997V17.6C200.277 16.0667 201.377 14.9833 202.743 14.35C204.143 13.7167 205.743 13.4 207.543 13.4C209.01 13.4 210.177 13.5833 211.043 13.95C211.943 14.3167 212.627 14.7833 213.093 15.35C213.627 15.9833 214.01 16.8 214.243 17.8C214.477 18.8 214.593 20.15 214.593 21.85V35.35C214.593 36.75 214.81 37.7 215.243 38.2C215.71 38.7 216.493 38.95 217.593 38.95V40C216.96 39.9667 215.977 39.9333 214.643 39.9C213.343 39.8333 212.06 39.8 210.793 39.8C209.46 39.8 208.16 39.8333 206.893 39.9C205.627 39.9333 204.66 39.9667 203.993 40V38.95C204.927 38.95 205.577 38.7 205.943 38.2C206.31 37.7 206.493 36.75 206.493 35.35V19.45C206.493 18.6833 206.41 18.0333 206.243 17.5C206.077 16.9333 205.793 16.5167 205.393 16.25C205.027 15.95 204.477 15.8 203.743 15.8C202.977 15.8 202.26 16 201.593 16.4C200.96 16.7667 200.443 17.3167 200.043 18.05C199.643 18.75 199.443 19.5667 199.443 20.5V35.35C199.443 36.75 199.627 37.7 199.993 38.2C200.393 38.7 201.043 38.95 201.943 38.95V40C201.343 39.9667 200.443 39.9333 199.243 39.9C198.043 39.8333 196.81 39.8 195.543 39.8C194.21 39.8 192.843 39.8333 191.443 39.9C190.077 39.9333 189.043 39.9667 188.343 40V38.95C189.443 38.95 190.21 38.7 190.643 38.2C191.11 37.7 191.343 36.75 191.343 35.35V6.9C191.343 5.4 191.127 4.3 190.693 3.6C190.293 2.86666 189.51 2.5 188.343 2.5V1.45C189.41 1.55 190.443 1.6 191.443 1.6C192.977 1.6 194.41 1.55 195.743 1.45C197.077 1.31667 198.31 1.13333 199.443 0.899997ZM237.055 13.4C238.188 13.4 239.088 13.65 239.755 14.15C240.422 14.6167 240.905 15.2333 241.205 16C241.505 16.7333 241.655 17.4667 241.655 18.2C241.655 19.5667 241.255 20.6667 240.455 21.5C239.688 22.3333 238.672 22.75 237.405 22.75C236.072 22.75 235.055 22.45 234.355 21.85C233.655 21.2167 233.305 20.3833 233.305 19.35C233.305 18.3167 233.522 17.4667 233.955 16.8C234.422 16.1333 234.988 15.5667 235.655 15.1C235.155 15.0333 234.672 15.1 234.205 15.3C233.672 15.4333 233.172 15.6833 232.705 16.05C232.238 16.4167 231.838 16.85 231.505 17.35C231.172 17.85 230.905 18.4 230.705 19C230.538 19.5667 230.455 20.15 230.455 20.75V34.85C230.455 36.45 230.805 37.5333 231.505 38.1C232.238 38.6667 233.388 38.95 234.955 38.95V40C234.188 39.9667 233.055 39.9333 231.555 39.9C230.055 39.8333 228.505 39.8 226.905 39.8C225.472 39.8 224.022 39.8333 222.555 39.9C221.122 39.9333 220.055 39.9667 219.355 40V38.95C220.455 38.95 221.222 38.7 221.655 38.2C222.122 37.7 222.355 36.75 222.355 35.35V19.55C222.355 18.05 222.138 16.95 221.705 16.25C221.272 15.5167 220.488 15.15 219.355 15.15V14.1C220.422 14.2 221.455 14.25 222.455 14.25C223.955 14.25 225.372 14.2 226.705 14.1C228.072 13.9667 229.322 13.7833 230.455 13.55V17.65C230.855 16.7833 231.372 16.0333 232.005 15.4C232.672 14.7667 233.422 14.2833 234.255 13.95C235.122 13.5833 236.055 13.4 237.055 13.4ZM255.551 13.4C258.484 13.4 260.784 14.2667 262.451 16C264.117 17.7333 264.951 20.5833 264.951 24.55H248.901L248.851 23.6H258.151C258.217 21.9667 258.151 20.4667 257.951 19.1C257.751 17.7 257.417 16.5833 256.951 15.75C256.517 14.9167 255.934 14.5 255.201 14.5C254.201 14.5 253.351 15.2167 252.651 16.65C251.951 18.0833 251.517 20.5167 251.351 23.95L251.551 24.3C251.484 24.6667 251.451 25.05 251.451 25.45C251.451 25.8167 251.451 26.2167 251.451 26.65C251.451 28.95 251.751 30.7833 252.351 32.15C252.984 33.5167 253.767 34.4833 254.701 35.05C255.634 35.6167 256.601 35.9 257.601 35.9C258.167 35.9 258.801 35.8167 259.501 35.65C260.201 35.4833 260.934 35.1333 261.701 34.6C262.467 34.0667 263.201 33.2833 263.901 32.25L264.751 32.55C264.384 33.85 263.751 35.1333 262.851 36.4C261.984 37.6333 260.867 38.6667 259.501 39.5C258.134 40.3 256.484 40.7 254.551 40.7C252.351 40.7 250.384 40.25 248.651 39.35C246.917 38.4167 245.534 36.9667 244.501 35C243.501 33 243.001 30.4 243.001 27.2C243.001 24.0333 243.551 21.4333 244.651 19.4C245.751 17.3667 247.251 15.8667 249.151 14.9C251.051 13.9 253.184 13.4 255.551 13.4ZM280.746 13.4C283.679 13.4 285.979 14.2667 287.646 16C289.313 17.7333 290.146 20.5833 290.146 24.55H274.096L274.046 23.6H283.346C283.413 21.9667 283.346 20.4667 283.146 19.1C282.946 17.7 282.613 16.5833 282.146 15.75C281.713 14.9167 281.129 14.5 280.396 14.5C279.396 14.5 278.546 15.2167 277.846 16.65C277.146 18.0833 276.713 20.5167 276.546 23.95L276.746 24.3C276.679 24.6667 276.646 25.05 276.646 25.45C276.646 25.8167 276.646 26.2167 276.646 26.65C276.646 28.95 276.946 30.7833 277.546 32.15C278.179 33.5167 278.963 34.4833 279.896 35.05C280.829 35.6167 281.796 35.9 282.796 35.9C283.363 35.9 283.996 35.8167 284.696 35.65C285.396 35.4833 286.129 35.1333 286.896 34.6C287.663 34.0667 288.396 33.2833 289.096 32.25L289.946 32.55C289.579 33.85 288.946 35.1333 288.046 36.4C287.179 37.6333 286.063 38.6667 284.696 39.5C283.329 40.3 281.679 40.7 279.746 40.7C277.546 40.7 275.579 40.25 273.846 39.35C272.113 38.4167 270.729 36.9667 269.696 35C268.696 33 268.196 30.4 268.196 27.2C268.196 24.0333 268.746 21.4333 269.846 19.4C270.946 17.3667 272.446 15.8667 274.346 14.9C276.246 13.9 278.379 13.4 280.746 13.4Z" fill="url(#paint0_linear_1532_339)"/>
<defs>
<linearGradient id="paint0_linear_1532_339" x1="-15" y1="19" x2="306" y2="19" gradientUnits="userSpaceOnUse">
<stop stop-color="#EC6D62"/>
<stop offset="0.432391" stop-color="#4C2C81"/>
<stop offset="0.76" stop-color="#8F25BC"/>
<stop offset="1" stop-color="#F7DF1E"/>
</linearGradient>
</defs>
</svg>
