<svg width="24" height="24" viewBox="0 0 24 24" fill="none" xmlns="http://www.w3.org/2000/svg">
<g clip-path="url(#clip0_1490_284)">
<path d="M7.02423 2.30994C7.77519 2.56433 8.4896 2.91599 9.14923 3.35594C10.0808 3.11785 11.0387 2.99824 12.0002 2.99994C12.9932 2.99994 13.9512 3.12394 14.8492 3.35494C15.5086 2.91542 16.2227 2.5641 16.9732 2.30994C17.6702 2.07294 18.6632 1.68894 19.2532 2.34194C19.6532 2.78594 19.7532 3.52994 19.8242 4.09794C19.9042 4.73194 19.9232 5.55794 19.7132 6.37794C20.5162 7.41494 21.0002 8.65194 21.0002 9.99994C21.0002 12.0419 19.8942 13.8149 18.2572 15.0429C17.4694 15.6265 16.5956 16.0839 15.6672 16.3989C15.8812 16.8889 16.0002 17.4309 16.0002 17.9999V20.9999C16.0002 21.2652 15.8949 21.5195 15.7073 21.707C15.5198 21.8946 15.2654 21.9999 15.0002 21.9999H9.00023C8.73501 21.9999 8.48066 21.8946 8.29312 21.707C8.10559 21.5195 8.00023 21.2652 8.00023 20.9999V20.0089C7.04523 20.1259 6.24423 20.0219 5.56323 19.7329C4.85123 19.4309 4.35523 18.9629 3.98223 18.5149C3.62823 18.0909 3.24223 17.1349 2.68423 16.9489C2.5596 16.9074 2.44437 16.8418 2.34512 16.7558C2.24586 16.6697 2.16452 16.565 2.10574 16.4475C1.98703 16.2103 1.96742 15.9356 2.05123 15.6839C2.13504 15.4322 2.3154 15.2242 2.55263 15.1054C2.78986 14.9867 3.06454 14.9671 3.31623 15.0509C3.98223 15.2729 4.41623 15.7529 4.71323 16.1389C5.19323 16.7589 5.58323 17.5689 6.34323 17.8919C6.65623 18.0249 7.11523 18.1119 7.83323 18.0139L8.00023 17.9799C8.00214 17.4357 8.11547 16.8977 8.33323 16.3989C7.40482 16.084 6.53104 15.6265 5.74323 15.0429C4.10623 13.8149 3.00023 12.0429 3.00023 9.99994C3.00023 8.65394 3.48323 7.41794 4.28423 6.38194C4.07423 5.56194 4.09223 4.73394 4.17223 4.09894L4.17723 4.06094C4.25023 3.47894 4.33523 2.79394 4.74323 2.34194C5.33323 1.68894 6.32723 2.07394 7.02323 2.31094L7.02423 2.30994Z" fill="black"/>
</g>
<defs>
<clipPath id="clip0_1490_284">
<rect width="24" height="24" fill="white"/>
</clipPath>
</defs>
</svg>
