<svg width="24" height="24" viewBox="0 0 24 24" fill="none" xmlns="http://www.w3.org/2000/svg">
<path d="M6.158 3H17.842C18.6794 3.00053 19.4823 3.33342 20.0745 3.92554C20.6666 4.51767 20.9995 5.32061 21 6.158V9.524C20.9184 9.51883 20.8367 9.51616 20.755 9.516C20.3143 9.51367 19.8788 9.61147 19.4814 9.80203C19.084 9.99258 18.7351 10.2709 18.461 10.616C17.989 11.202 17.703 11.993 17.633 12.882C17.6183 13.0593 17.6127 13.2367 17.616 13.414C17.663 15.428 18.751 17.038 20.684 17.038C20.792 17.038 20.8973 17.033 21 17.023V17.843C20.9992 18.6802 20.6662 19.4829 20.0741 20.0748C19.482 20.6667 18.6792 20.9995 17.842 21H6.158C5.32061 20.9995 4.51767 20.6666 3.92554 20.0745C3.33342 19.4823 3.00053 18.6794 3 17.842V6.158C3.00053 5.32061 3.33342 4.51767 3.92554 3.92554C4.51767 3.33342 5.32061 3.00053 6.158 3ZM21 15.388V12.662H19.347C19.273 13.978 19.993 15.092 21 15.388ZM21 12.281V9.973C20.9165 9.95031 20.8305 9.93855 20.744 9.938C19.929 9.955 19.444 10.93 19.384 12.281H21ZM17.697 7.3L17.712 7.297V7.187H14.812L12.122 13.513L9.43 7.187H6.306V7.297L6.32 7.3C6.849 7.42 7.117 7.598 7.117 8.24V15.76C7.117 16.402 6.847 16.58 6.319 16.7L6.305 16.702V16.812H8.425V16.702L8.41 16.7C7.881 16.58 7.612 16.402 7.612 15.76V8.676L11.07 16.813H11.266L14.825 8.449V15.945C14.779 16.453 14.513 16.61 14.034 16.718L14.02 16.721V16.83H17.712V16.72L17.697 16.718C17.217 16.61 16.945 16.453 16.9 15.945L16.897 8.24H16.9C16.9 7.598 17.168 7.42 17.697 7.3Z" fill="black"/>
</svg>
