<svg width="18" height="16" viewBox="0 0 18 16" fill="none" xmlns="http://www.w3.org/2000/svg">
<path d="M16.2 0H1.8C0.81 0 0.00899999 0.9 0.00899999 2L0 14C0 15.1 0.81 16 1.8 16H16.2C17.19 16 18 15.1 18 14V2C18 0.9 17.19 0 16.2 0ZM15.84 4.25L9.477 8.67C9.189 8.87 8.811 8.87 8.523 8.67L2.16 4.25C2.06975 4.19371 1.99073 4.11766 1.9277 4.02645C1.86467 3.93525 1.81896 3.83078 1.79332 3.71937C1.76768 3.60796 1.76265 3.49194 1.77854 3.37831C1.79443 3.26468 1.8309 3.15581 1.88575 3.0583C1.9406 2.96079 2.01269 2.87666 2.09765 2.811C2.18262 2.74533 2.27868 2.69951 2.38005 2.6763C2.48141 2.65309 2.58595 2.65297 2.68736 2.67595C2.78876 2.69893 2.88492 2.74453 2.97 2.81L9 7L15.03 2.81C15.1151 2.74453 15.2112 2.69893 15.3126 2.67595C15.414 2.65297 15.5186 2.65309 15.62 2.6763C15.7213 2.69951 15.8174 2.74533 15.9023 2.811C15.9873 2.87666 16.0594 2.96079 16.1142 3.0583C16.1691 3.15581 16.2056 3.26468 16.2215 3.37831C16.2373 3.49194 16.2323 3.60796 16.2067 3.71937C16.181 3.83078 16.1353 3.93525 16.0723 4.02645C16.0093 4.11766 15.9302 4.19371 15.84 4.25Z" fill="black"/>
</svg>
