<svg width="117" height="104" viewBox="0 0 117 104" fill="none" xmlns="http://www.w3.org/2000/svg">
<path d="M71.1313 65.2638C62.0754 62.3318 64.6533 59.9978 73.2958 56.6677C77.4357 55.0697 74.9182 51.6997 75.0313 49.0037C75.082 47.7697 79.8128 48.0157 79.4696 43.2557C79.2278 39.9036 72.0283 35.1276 70.0666 33.0896C68.9336 31.9136 72.3754 28.6956 69.9515 25.8656C66.6423 21.9975 66.1197 15.2675 64.1171 11.5035C64.1171 11.5035 65.6439 9.11146 64.4739 7.75145C54.3806 -3.96661 16.7159 -2.89061 7.09057 14.3555C-3.71451 33.7156 -3.85881 60.4737 18.6074 74.8898C28.5993 81.2999 15.8013 104 15.8013 104H55.4239C55.4239 100.124 51.0051 86.2199 58.7389 86.8439C65.4587 87.3859 73.6878 87.0879 72.9585 79.3039C72.7381 76.9558 72.4787 74.8418 74.0778 72.8958C75.6768 70.9518 77.9915 67.4838 71.1313 65.2638Z" fill="#233157"/>
<path d="M80.2012 61.6095L117 66.5535V56.6675L80.2012 61.6095Z" fill="#233157"/>
<path d="M110.097 94.1619L114.044 85.5999L80.2012 66.8638L110.097 94.1619Z" fill="#233157"/>
<path d="M114.044 37.5313L110.097 28.9673L80.2012 56.2694L114.044 37.5313Z" fill="#233157"/>
</svg>
