<svg width="310" height="38" viewBox="0 0 310 38" fill="none" xmlns="http://www.w3.org/2000/svg">
<path d="M11.7256 34.2412C11.7256 35.1689 11.457 35.8607 10.9199 36.3164C10.3991 36.7721 9.69108 37 8.7959 37H3.32715C2.44824 37 1.74023 36.7884 1.20312 36.3652C0.682292 35.9421 0.421875 35.2666 0.421875 34.3389C0.421875 33.5576 0.568359 32.9798 0.861328 32.6055C1.17057 32.2148 1.52865 31.8975 1.93555 31.6533C2.35872 31.3929 2.73307 31.0837 3.05859 30.7256C3.38411 30.3512 3.57129 29.7897 3.62012 29.041L4.84082 11.1699V10.9502C4.84082 10.3317 4.67806 9.86784 4.35254 9.55859C4.02702 9.23307 3.65267 8.9401 3.22949 8.67969C2.80632 8.41927 2.43197 8.08561 2.10645 7.67871C1.78092 7.25553 1.61816 6.65332 1.61816 5.87207C1.61816 4.96061 1.88672 4.29329 2.42383 3.87012C2.96094 3.43066 3.66081 3.21094 4.52344 3.21094H13.1904C14.818 3.21094 16.0469 3.68294 16.877 4.62695C17.707 5.57096 18.3581 6.74284 18.8301 8.14258L22.8096 19.8369L26.6914 8.14258C27.1634 6.69401 27.8145 5.514 28.6445 4.60254C29.4746 3.6748 30.7197 3.21094 32.3799 3.21094H41.1934C42.0723 3.21094 42.7803 3.42253 43.3174 3.8457C43.8545 4.26888 44.123 4.94434 44.123 5.87207C44.123 6.63704 43.9603 7.23926 43.6348 7.67871C43.3092 8.10189 42.9268 8.45182 42.4873 8.72852C42.0641 9.00521 41.6898 9.29818 41.3643 9.60742C41.0387 9.90039 40.876 10.3073 40.876 10.8281V10.9502L41.9014 29.0166C41.9502 29.8141 42.1211 30.3919 42.4141 30.75C42.7233 31.0918 43.0651 31.3685 43.4395 31.5801C43.8138 31.7917 44.1393 32.0765 44.416 32.4346C44.709 32.7764 44.8555 33.3542 44.8555 34.168C44.8555 35.0794 44.5951 35.7793 44.0742 36.2676C43.5697 36.7559 42.8617 37 41.9502 37H29.7432C28.8643 37 28.1562 36.7884 27.6191 36.3652C27.0983 35.9421 26.8379 35.2666 26.8379 34.3389C26.8379 33.6064 27.0007 33.0286 27.3262 32.6055C27.6517 32.166 28.026 31.8079 28.4492 31.5312C28.8887 31.2383 29.2712 30.9453 29.5967 30.6523C29.9222 30.3594 30.085 29.9688 30.085 29.4805V29.334L29.2549 17.7129L24.2744 32.0684C24.0303 32.7845 23.7292 33.4844 23.3711 34.168C23.0293 34.8353 22.5817 35.3887 22.0283 35.8281C21.4749 36.2513 20.7588 36.4629 19.8799 36.4629C18.7568 36.4629 17.9268 36.2676 17.3896 35.877C16.8525 35.4863 16.3236 34.819 15.8027 33.875C15.4284 33.2077 15.1191 32.516 14.875 31.7998L9.79688 17.4443L9.01562 29.041V29.2363C9.01562 29.7897 9.15397 30.2454 9.43066 30.6035C9.70736 30.9453 10.0166 31.2627 10.3584 31.5557C10.7165 31.8486 11.0339 32.1986 11.3105 32.6055C11.5872 33.0124 11.7256 33.5576 11.7256 34.2412ZM45.71 31.3848C45.71 29.8874 46.0599 28.6423 46.7598 27.6494C47.4596 26.6403 48.3711 25.8346 49.4941 25.2324C50.6335 24.6139 51.8623 24.1745 53.1807 23.9141C54.499 23.6536 55.7686 23.5234 56.9893 23.5234C57.3473 23.5234 57.7135 23.5316 58.0879 23.5479C58.4622 23.5479 58.8285 23.5804 59.1865 23.6455V17.2979C59.1865 16.891 59.097 16.4189 58.918 15.8818C58.7552 15.3447 58.4134 15.0762 57.8926 15.0762C57.388 15.0762 57.0706 15.2878 56.9404 15.7109C56.8265 16.1178 56.7695 16.5085 56.7695 16.8828C56.7695 17.0456 56.7695 17.2165 56.7695 17.3955C56.7858 17.5583 56.7939 17.7292 56.7939 17.9082C56.7939 19.5846 56.2161 20.7646 55.0605 21.4482C53.9049 22.1156 52.5866 22.4492 51.1055 22.4492C49.8685 22.4492 48.7943 22.1725 47.8828 21.6191C46.9714 21.0658 46.5156 20.0892 46.5156 18.6895C46.5156 18.1361 46.6214 17.599 46.833 17.0781C47.0609 16.5573 47.3457 16.0934 47.6875 15.6865C48.6803 14.4821 49.9255 13.5625 51.4229 12.9277C52.9365 12.293 54.5234 11.8617 56.1836 11.6338C57.86 11.3896 59.4307 11.2676 60.8955 11.2676C62.5557 11.2676 64.0775 11.5036 65.4609 11.9756C66.8444 12.4476 67.9512 13.237 68.7812 14.3438C69.6113 15.4342 70.0264 16.9072 70.0264 18.7627V30.0176C70.0264 30.2943 70.0915 30.5384 70.2217 30.75C70.3519 30.9616 70.5716 31.0674 70.8809 31.0674C71.125 31.0674 71.3285 30.9941 71.4912 30.8477C71.6702 30.6849 71.8818 30.6035 72.126 30.6035C72.598 30.6035 72.9479 30.7663 73.1758 31.0918C73.4199 31.4173 73.542 31.7998 73.542 32.2393C73.542 33.3786 73.1921 34.3633 72.4922 35.1934C71.8086 36.0072 70.9541 36.6257 69.9287 37.0488C68.9033 37.4883 67.8698 37.708 66.8281 37.708C65.6074 37.708 64.3704 37.4395 63.1172 36.9023C61.8802 36.3652 61.0257 35.527 60.5537 34.3877C59.7236 35.5433 58.5843 36.3896 57.1357 36.9268C55.7035 37.4476 54.2956 37.708 52.9121 37.708C51.6426 37.708 50.4544 37.472 49.3477 37C48.2572 36.5117 47.3783 35.7956 46.7109 34.8516C46.0436 33.9076 45.71 32.752 45.71 31.3848ZM56.7207 29.2363C56.7207 29.8874 56.8753 30.5059 57.1846 31.0918C57.4938 31.6615 58.0228 31.9463 58.7715 31.9463C58.918 31.9463 59.0563 31.93 59.1865 31.8975V26.8438C58.9098 26.7298 58.625 26.6729 58.332 26.6729C57.7135 26.6729 57.2904 26.9821 57.0625 27.6006C56.8346 28.2028 56.7207 28.748 56.7207 29.2363ZM74.4941 25.3057C74.4941 22.8317 74.9743 20.5286 75.9346 18.3965C76.8949 16.248 78.2946 14.5146 80.1338 13.1963C81.973 11.8779 84.2191 11.2188 86.8721 11.2188C88.4671 11.2188 89.9238 11.5605 91.2422 12.2441V10.1689C91.2422 9.4528 91.1201 8.91569 90.876 8.55762C90.6481 8.19954 90.3796 7.91471 90.0703 7.70312C89.7773 7.47526 89.5088 7.23112 89.2646 6.9707C89.0368 6.69401 88.9229 6.28711 88.9229 5.75C88.9229 5.08268 89.1182 4.57812 89.5088 4.23633C89.9157 3.87826 90.3958 3.59342 90.9492 3.38184L96.2471 1.25781C96.8656 0.997396 97.5003 0.769531 98.1514 0.574219C98.8024 0.378906 99.4697 0.28125 100.153 0.28125C100.821 0.28125 101.325 0.517253 101.667 0.989258C102.025 1.44499 102.204 1.9821 102.204 2.60059V29.8223C102.204 30.6198 102.261 31.1732 102.375 31.4824C102.489 31.7917 102.823 32.2393 103.376 32.8252C103.701 33.167 103.929 33.46 104.06 33.7041C104.19 33.932 104.255 34.29 104.255 34.7783C104.255 35.4782 104.027 36.0234 103.571 36.4141C103.116 36.8047 102.546 37 101.862 37H96.3936C95.4821 37 94.6032 36.7233 93.7568 36.1699C92.9268 35.6003 92.3408 34.8841 91.999 34.0215C91.0062 35.0957 89.875 35.9827 88.6055 36.6826C87.3522 37.3662 85.9443 37.708 84.3818 37.708C82.7217 37.708 81.265 37.3499 80.0117 36.6338C78.7747 35.9014 77.7493 34.9329 76.9355 33.7285C76.1217 32.5078 75.5114 31.165 75.1045 29.7002C74.6976 28.2354 74.4941 26.7705 74.4941 25.3057ZM85.8223 24.085C85.8223 24.6709 85.863 25.3789 85.9443 26.209C86.042 27.0228 86.2129 27.8285 86.457 28.626C86.7174 29.4072 87.0918 30.0664 87.5801 30.6035C88.0846 31.1243 88.7357 31.3848 89.5332 31.3848C90.1517 31.3848 90.7214 31.1732 91.2422 30.75V17.7129C90.9655 17.4362 90.6562 17.2165 90.3145 17.0537C89.9727 16.8747 89.5983 16.7852 89.1914 16.7852C88.4427 16.7852 87.8405 17.0618 87.3848 17.6152C86.9453 18.1523 86.6117 18.8278 86.3838 19.6416C86.1559 20.4391 86.0013 21.2448 85.9199 22.0586C85.8548 22.8724 85.8223 23.5479 85.8223 24.085ZM118.195 0.28125C118.863 0.28125 119.375 0.517253 119.733 0.989258C120.091 1.44499 120.271 1.9821 120.271 2.60059V15.8086C121.573 14.6204 122.997 13.5625 124.543 12.6348C126.105 11.6908 127.668 11.2188 129.23 11.2188C130.809 11.2188 132.128 11.6094 133.186 12.3906C134.26 13.1556 135.065 14.1647 135.603 15.418C136.14 16.6712 136.408 18.0303 136.408 19.4951V29.6514C136.408 30.221 136.424 30.6605 136.457 30.9697C136.49 31.279 136.587 31.5638 136.75 31.8242C136.929 32.0684 137.214 32.4102 137.604 32.8496C137.93 33.2077 138.158 33.4925 138.288 33.7041C138.418 33.9157 138.483 34.2738 138.483 34.7783C138.483 35.4945 138.264 36.0479 137.824 36.4385C137.385 36.8128 136.815 37 136.115 37H125.812C125.129 37 124.6 36.7965 124.226 36.3896C123.851 35.9827 123.664 35.4456 123.664 34.7783C123.664 34.1598 123.811 33.6878 124.104 33.3623C124.396 33.0368 124.689 32.6787 124.982 32.2881C125.275 31.8812 125.422 31.2871 125.422 30.5059V22.1318C125.422 21.3343 125.259 20.5775 124.934 19.8613C124.624 19.1452 123.99 18.7871 123.029 18.7871C122.443 18.7871 121.931 18.901 121.491 19.1289C121.052 19.3405 120.645 19.6172 120.271 19.959V30.2861C120.271 31.0348 120.36 31.6045 120.539 31.9951C120.718 32.3695 120.922 32.6706 121.149 32.8984C121.394 33.1263 121.605 33.3704 121.784 33.6309C121.963 33.8913 122.053 34.2738 122.053 34.7783C122.053 35.4456 121.866 35.9827 121.491 36.3896C121.117 36.7965 120.588 37 119.904 37H109.602C108.902 37 108.324 36.8128 107.868 36.4385C107.429 36.0641 107.209 35.5107 107.209 34.7783C107.209 34.2249 107.315 33.8018 107.526 33.5088C107.738 33.1995 107.974 32.931 108.234 32.7031C108.511 32.459 108.755 32.1497 108.967 31.7754C109.178 31.401 109.284 30.8639 109.284 30.1641V10.1689C109.284 9.43652 109.162 8.89128 108.918 8.5332C108.69 8.15885 108.413 7.86589 108.088 7.6543C107.779 7.44271 107.502 7.20671 107.258 6.94629C107.03 6.68587 106.916 6.28711 106.916 5.75C106.916 5.11523 107.128 4.61882 107.551 4.26074C107.974 3.88639 108.446 3.59342 108.967 3.38184L114.289 1.25781C114.908 1.01367 115.542 0.793945 116.193 0.598633C116.844 0.387044 117.512 0.28125 118.195 0.28125ZM149.689 37.708C148.143 37.708 146.849 37.3174 145.808 36.5361C144.782 35.7386 144.017 34.7051 143.513 33.4355C143.008 32.166 142.756 30.8314 142.756 29.4316V21.1309C142.756 20.5286 142.707 20.1055 142.609 19.8613C142.512 19.6009 142.235 19.2673 141.779 18.8604C141.421 18.5348 141.079 18.2337 140.754 17.957C140.445 17.6641 140.29 17.2409 140.29 16.6875C140.29 16.0527 140.493 15.5563 140.9 15.1982C141.324 14.8239 141.804 14.5309 142.341 14.3193L147.712 12.1953C148.347 11.9349 148.981 11.707 149.616 11.5117C150.267 11.3164 150.943 11.2188 151.643 11.2188C152.31 11.2188 152.823 11.4548 153.181 11.9268C153.539 12.3825 153.718 12.9196 153.718 13.5381V26.7949C153.718 27.2507 153.767 27.7389 153.864 28.2598C153.978 28.7806 154.19 29.2282 154.499 29.6025C154.808 29.9606 155.256 30.1396 155.842 30.1396C156.444 30.1396 156.973 30.0094 157.429 29.749C157.884 29.4723 158.299 29.1387 158.674 28.748V21.1309C158.674 20.5124 158.617 20.0648 158.503 19.7881C158.405 19.4951 158.104 19.1533 157.6 18.7627C157.225 18.4697 156.9 18.1849 156.623 17.9082C156.346 17.6315 156.208 17.2246 156.208 16.6875C156.208 16.0527 156.411 15.5563 156.818 15.1982C157.242 14.8239 157.722 14.5309 158.259 14.3193L163.63 12.1953C164.265 11.9349 164.899 11.707 165.534 11.5117C166.185 11.3164 166.861 11.2188 167.561 11.2188C168.228 11.2188 168.741 11.4466 169.099 11.9023C169.473 12.3581 169.66 12.9033 169.66 13.5381V29.6514C169.66 30.1071 169.676 30.5628 169.709 31.0186C169.758 31.458 169.945 31.8649 170.271 32.2393C170.677 32.6787 171.035 33.0449 171.345 33.3379C171.654 33.6309 171.809 34.111 171.809 34.7783C171.809 35.5107 171.589 36.0641 171.149 36.4385C170.71 36.8128 170.132 37 169.416 37H163.85C162.613 37 161.522 36.5361 160.578 35.6084C159.65 34.6807 159.187 33.6064 159.187 32.3857C158.291 33.2484 157.315 34.0866 156.257 34.9004C155.199 35.7142 154.108 36.3896 152.985 36.9268C151.879 37.4476 150.78 37.708 149.689 37.708ZM185.896 15.3936C185.342 15.3936 184.846 15.5156 184.406 15.7598C183.967 16.0039 183.747 16.4434 183.747 17.0781C183.747 17.599 183.869 17.9977 184.113 18.2744C184.357 18.5511 184.707 18.7871 185.163 18.9824C185.651 19.194 186.164 19.3486 186.701 19.4463C187.238 19.5439 187.759 19.6497 188.264 19.7637C189.761 20.0892 191.161 20.6426 192.463 21.4238C193.765 22.1888 194.815 23.1816 195.612 24.4023C196.426 25.6068 196.833 27.0391 196.833 28.6992C196.833 30.929 196.328 32.7031 195.319 34.0215C194.31 35.3398 192.967 36.2839 191.291 36.8535C189.631 37.4232 187.808 37.708 185.822 37.708C185.318 37.708 184.618 37.6429 183.723 37.5127C182.844 37.3825 182.193 37.2035 181.77 36.9756H181.745C181.582 36.8942 181.314 36.8047 180.939 36.707C180.565 36.6094 180.288 36.5605 180.109 36.5605C179.605 36.5605 179.174 36.7559 178.815 37.1465C178.457 37.5534 178.018 37.7568 177.497 37.7568C176.797 37.7568 176.244 37.529 175.837 37.0732C175.446 36.6175 175.145 36.0804 174.934 35.4619C174.738 34.8271 174.559 34.2412 174.396 33.7041C174.283 33.2484 174.152 32.8008 174.006 32.3613C173.859 31.9056 173.786 31.4417 173.786 30.9697C173.786 30.1234 174.014 29.4398 174.47 28.9189C174.925 28.3981 175.585 28.1377 176.447 28.1377C177.294 28.1377 177.993 28.3249 178.547 28.6992C179.1 29.0573 179.589 29.5049 180.012 30.042C180.451 30.5791 180.891 31.1243 181.33 31.6777C181.786 32.2148 182.331 32.6706 182.966 33.0449C183.601 33.403 184.398 33.582 185.358 33.582C186.026 33.582 186.53 33.3867 186.872 32.9961C187.214 32.5892 187.385 32.0684 187.385 31.4336C187.385 30.5221 187.141 29.9362 186.652 29.6758C186.164 29.4154 185.537 29.2119 184.772 29.0654C183.373 28.7887 182.038 28.4632 180.769 28.0889C179.515 27.7145 178.4 27.2018 177.424 26.5508C176.464 25.8997 175.699 25.0371 175.129 23.9629C174.576 22.8887 174.299 21.5052 174.299 19.8125C174.299 17.8105 174.844 16.1829 175.935 14.9297C177.025 13.6602 178.409 12.7243 180.085 12.1221C181.778 11.5199 183.495 11.2188 185.236 11.2188C185.904 11.2188 186.555 11.2432 187.189 11.292C187.84 11.3408 188.483 11.471 189.118 11.6826C189.2 11.6989 189.387 11.764 189.68 11.8779C189.989 11.9919 190.29 12.1058 190.583 12.2197C190.876 12.3174 191.022 12.3662 191.022 12.3662C191.56 12.3662 192.015 12.179 192.39 11.8047C192.78 11.4141 193.244 11.2188 193.781 11.2188C194.465 11.2188 194.969 11.4873 195.295 12.0244C195.62 12.5452 195.848 13.1556 195.979 13.8555C196.125 14.5553 196.239 15.1494 196.32 15.6377C196.385 16.012 196.451 16.3945 196.516 16.7852C196.581 17.1595 196.613 17.5339 196.613 17.9082C196.613 18.5592 196.459 19.1777 196.149 19.7637C195.856 20.3333 195.327 20.6182 194.562 20.6182C193.798 20.6182 193.122 20.3577 192.536 19.8369C191.95 19.2998 191.364 18.6895 190.778 18.0059C190.192 17.3223 189.517 16.7201 188.752 16.1992C187.987 15.6621 187.035 15.3936 185.896 15.3936ZM209.846 0.28125C210.513 0.28125 211.026 0.517253 211.384 0.989258C211.742 1.44499 211.921 1.9821 211.921 2.60059V15.8086C213.223 14.6204 214.647 13.5625 216.193 12.6348C217.756 11.6908 219.318 11.2188 220.881 11.2188C222.46 11.2188 223.778 11.6094 224.836 12.3906C225.91 13.1556 226.716 14.1647 227.253 15.418C227.79 16.6712 228.059 18.0303 228.059 19.4951V29.6514C228.059 30.221 228.075 30.6605 228.107 30.9697C228.14 31.279 228.238 31.5638 228.4 31.8242C228.579 32.0684 228.864 32.4102 229.255 32.8496C229.58 33.2077 229.808 33.4925 229.938 33.7041C230.069 33.9157 230.134 34.2738 230.134 34.7783C230.134 35.4945 229.914 36.0479 229.475 36.4385C229.035 36.8128 228.465 37 227.766 37H217.463C216.779 37 216.25 36.7965 215.876 36.3896C215.502 35.9827 215.314 35.4456 215.314 34.7783C215.314 34.1598 215.461 33.6878 215.754 33.3623C216.047 33.0368 216.34 32.6787 216.633 32.2881C216.926 31.8812 217.072 31.2871 217.072 30.5059V22.1318C217.072 21.3343 216.91 20.5775 216.584 19.8613C216.275 19.1452 215.64 18.7871 214.68 18.7871C214.094 18.7871 213.581 18.901 213.142 19.1289C212.702 19.3405 212.295 19.6172 211.921 19.959V30.2861C211.921 31.0348 212.01 31.6045 212.189 31.9951C212.368 32.3695 212.572 32.6706 212.8 32.8984C213.044 33.1263 213.256 33.3704 213.435 33.6309C213.614 33.8913 213.703 34.2738 213.703 34.7783C213.703 35.4456 213.516 35.9827 213.142 36.3896C212.767 36.7965 212.238 37 211.555 37H201.252C200.552 37 199.974 36.8128 199.519 36.4385C199.079 36.0641 198.859 35.5107 198.859 34.7783C198.859 34.2249 198.965 33.8018 199.177 33.5088C199.388 33.1995 199.624 32.931 199.885 32.7031C200.161 32.459 200.406 32.1497 200.617 31.7754C200.829 31.401 200.935 30.8639 200.935 30.1641V10.1689C200.935 9.43652 200.812 8.89128 200.568 8.5332C200.34 8.15885 200.064 7.86589 199.738 7.6543C199.429 7.44271 199.152 7.20671 198.908 6.94629C198.68 6.68587 198.566 6.28711 198.566 5.75C198.566 5.11523 198.778 4.61882 199.201 4.26074C199.624 3.88639 200.096 3.59342 200.617 3.38184L205.939 1.25781C206.558 1.01367 207.193 0.793945 207.844 0.598633C208.495 0.387044 209.162 0.28125 209.846 0.28125ZM245.686 22.5225V29.6514C245.686 30.5954 245.791 31.2301 246.003 31.5557C246.231 31.8812 246.817 32.1416 247.761 32.3369C248.591 32.4997 249.25 32.695 249.738 32.9229C250.243 33.1344 250.495 33.7529 250.495 34.7783C250.495 35.5107 250.275 36.0641 249.836 36.4385C249.396 36.8128 248.819 37 248.103 37H235.212C234.512 37 233.934 36.8128 233.479 36.4385C233.023 36.0641 232.795 35.5107 232.795 34.7783C232.795 34.1924 232.901 33.7529 233.112 33.46C233.34 33.167 233.592 32.9066 233.869 32.6787C234.162 32.4346 234.414 32.1253 234.626 31.751C234.854 31.3604 234.968 30.7744 234.968 29.9932V21.1309C234.968 20.3984 234.838 19.8532 234.577 19.4951C234.333 19.1208 234.048 18.8278 233.723 18.6162C233.413 18.4046 233.129 18.1686 232.868 17.9082C232.624 17.6315 232.502 17.2246 232.502 16.6875C232.502 16.0527 232.705 15.5563 233.112 15.1982C233.535 14.8239 234.016 14.5309 234.553 14.3193L240.656 11.9023C241.047 11.7396 241.446 11.585 241.853 11.4385C242.259 11.292 242.683 11.2188 243.122 11.2188C243.692 11.2188 244.115 11.4385 244.392 11.8779C244.668 12.3011 244.855 12.7975 244.953 13.3672C245.067 13.9206 245.148 14.4089 245.197 14.832C245.246 15.125 245.295 15.418 245.344 15.7109C245.393 16.0039 245.433 16.2969 245.466 16.5898C245.97 15.0924 246.743 13.8229 247.785 12.7812C248.843 11.7396 250.3 11.2188 252.155 11.2188C253.474 11.2188 254.507 11.5443 255.256 12.1953C256.021 12.8464 256.566 13.6846 256.892 14.71C257.217 15.7191 257.38 16.7933 257.38 17.9326C257.38 18.9906 257.242 20.016 256.965 21.0088C256.688 21.9854 256.2 22.791 255.5 23.4258C254.816 24.0605 253.848 24.3779 252.595 24.3779C251.228 24.3779 250.227 24.1663 249.592 23.7432C248.973 23.32 248.575 22.7992 248.396 22.1807C248.216 21.5622 248.119 20.9437 248.103 20.3252C248.103 19.7067 248.054 19.1859 247.956 18.7627C247.858 18.3395 247.565 18.1279 247.077 18.1279C246.638 18.1279 246.32 18.4372 246.125 19.0557C245.93 19.6579 245.808 20.3089 245.759 21.0088C245.71 21.7087 245.686 22.2132 245.686 22.5225ZM282.99 20.8623C282.99 22.3109 282.559 23.4095 281.696 24.1582C280.85 24.9069 279.727 25.2812 278.327 25.2812H268.488C268.863 26.681 269.53 27.861 270.49 28.8213C271.451 29.7653 272.834 30.2373 274.641 30.2373C275.357 30.2373 276.065 30.0908 276.765 29.7979C277.481 29.4886 278.148 29.1305 278.767 28.7236C279.401 28.3167 279.955 27.9668 280.427 27.6738C280.899 27.3646 281.257 27.21 281.501 27.21C281.973 27.21 282.315 27.3809 282.526 27.7227C282.738 28.0482 282.844 28.4225 282.844 28.8457C282.844 30.3268 282.494 31.6289 281.794 32.752C281.11 33.8587 280.199 34.7783 279.06 35.5107C277.937 36.2432 276.7 36.7884 275.349 37.1465C274.014 37.5208 272.696 37.708 271.394 37.708C268.838 37.708 266.584 37.179 264.631 36.1211C262.678 35.0632 261.148 33.582 260.041 31.6777C258.951 29.7572 258.405 27.5029 258.405 24.915C258.405 22.1481 258.934 19.7393 259.992 17.6885C261.066 15.6377 262.604 14.0508 264.606 12.9277C266.608 11.7884 269.009 11.2188 271.809 11.2188C273.745 11.2188 275.56 11.585 277.253 12.3174C278.962 13.0498 280.345 14.1322 281.403 15.5645C282.461 16.9967 282.99 18.7627 282.99 20.8623ZM268.049 21.5215C268.049 21.7005 268.049 21.8796 268.049 22.0586H270.588C271.206 22.0586 271.63 21.9202 271.857 21.6436C272.085 21.3506 272.199 20.9111 272.199 20.3252C272.199 19.9346 272.15 19.4219 272.053 18.7871C271.955 18.1523 271.76 17.5827 271.467 17.0781C271.19 16.5736 270.783 16.3213 270.246 16.3213C269.758 16.3213 269.367 16.5247 269.074 16.9316C268.781 17.3223 268.562 17.8187 268.415 18.4209C268.269 19.0068 268.171 19.5846 268.122 20.1543C268.073 20.724 268.049 21.1797 268.049 21.5215ZM309.504 20.8623C309.504 22.3109 309.073 23.4095 308.21 24.1582C307.364 24.9069 306.241 25.2812 304.841 25.2812H295.002C295.376 26.681 296.044 27.861 297.004 28.8213C297.964 29.7653 299.348 30.2373 301.154 30.2373C301.87 30.2373 302.578 30.0908 303.278 29.7979C303.994 29.4886 304.662 29.1305 305.28 28.7236C305.915 28.3167 306.468 27.9668 306.94 27.6738C307.412 27.3646 307.771 27.21 308.015 27.21C308.487 27.21 308.828 27.3809 309.04 27.7227C309.252 28.0482 309.357 28.4225 309.357 28.8457C309.357 30.3268 309.007 31.6289 308.308 32.752C307.624 33.8587 306.713 34.7783 305.573 35.5107C304.45 36.2432 303.213 36.7884 301.862 37.1465C300.528 37.5208 299.209 37.708 297.907 37.708C295.352 37.708 293.098 37.179 291.145 36.1211C289.191 35.0632 287.661 33.582 286.555 31.6777C285.464 29.7572 284.919 27.5029 284.919 24.915C284.919 22.1481 285.448 19.7393 286.506 17.6885C287.58 15.6377 289.118 14.0508 291.12 12.9277C293.122 11.7884 295.523 11.2188 298.322 11.2188C300.259 11.2188 302.074 11.585 303.767 12.3174C305.476 13.0498 306.859 14.1322 307.917 15.5645C308.975 16.9967 309.504 18.7627 309.504 20.8623ZM294.562 21.5215C294.562 21.7005 294.562 21.8796 294.562 22.0586H297.102C297.72 22.0586 298.143 21.9202 298.371 21.6436C298.599 21.3506 298.713 20.9111 298.713 20.3252C298.713 19.9346 298.664 19.4219 298.566 18.7871C298.469 18.1523 298.273 17.5827 297.98 17.0781C297.704 16.5736 297.297 16.3213 296.76 16.3213C296.271 16.3213 295.881 16.5247 295.588 16.9316C295.295 17.3223 295.075 17.8187 294.929 18.4209C294.782 19.0068 294.685 19.5846 294.636 20.1543C294.587 20.724 294.562 21.1797 294.562 21.5215Z" fill="url(#paint0_linear_1576_508)"/>
<defs>
<linearGradient id="paint0_linear_1576_508" x1="-5" y1="20" x2="210.5" y2="37" gradientUnits="userSpaceOnUse">
<stop stop-color="#9D8EFF"/>
</linearGradient>
</defs>
</svg>
