<svg width="294" height="41" viewBox="0 0 294 41" fill="none" xmlns="http://www.w3.org/2000/svg">
<path d="M45.4984 4.6V5.6C44.4984 5.63333 43.7318 5.76667 43.1984 6C42.6984 6.2 42.3651 6.6 42.1984 7.2C42.0318 7.76666 41.9484 8.66666 41.9484 9.9V34.7C41.9484 35.9 42.0318 36.8 42.1984 37.4C42.3984 38 42.7484 38.4 43.2484 38.6C43.7484 38.8 44.4984 38.9333 45.4984 39V40C44.4651 39.9333 43.1484 39.9 41.5484 39.9C39.9484 39.8667 38.3151 39.85 36.6484 39.85C34.8484 39.85 33.1484 39.8667 31.5484 39.9C29.9818 39.9 28.7151 39.9333 27.7484 40V39C28.8818 38.9333 29.7318 38.8 30.2984 38.6C30.8984 38.4 31.2984 38 31.4984 37.4C31.6984 36.8 31.7984 35.9 31.7984 34.7V7.95L32.2984 7.85L19.7484 39.95H18.9484L4.84844 7.85V30.2C4.84844 32.4333 4.93177 34.15 5.09844 35.35C5.29844 36.5167 5.74844 37.3667 6.44844 37.9C7.18177 38.4 8.33177 38.7667 9.89844 39V40C9.23177 39.9333 8.3651 39.9 7.29844 39.9C6.23177 39.8667 5.23177 39.85 4.29844 39.85C3.5651 39.85 2.8151 39.8667 2.04844 39.9C1.28177 39.9 0.648438 39.9333 0.148438 40V39C1.18177 38.7667 1.94844 38.4167 2.44844 37.95C2.94844 37.45 3.28177 36.6667 3.44844 35.6C3.6151 34.5333 3.69844 33.0667 3.69844 31.2V9.9C3.69844 8.66666 3.6151 7.76666 3.44844 7.2C3.28177 6.6 2.93177 6.2 2.39844 6C1.89844 5.76667 1.14844 5.63333 0.148438 5.6V4.6C0.648438 4.63333 1.28177 4.66667 2.04844 4.7C2.8151 4.73333 3.5651 4.75 4.29844 4.75C6.23177 4.75 8.08177 4.73333 9.84844 4.7C11.6151 4.66667 13.2151 4.63333 14.6484 4.6L24.5484 26.9L23.0484 28.55L32.2984 4.75C32.9651 4.75 33.6818 4.75 34.4484 4.75C35.2151 4.75 35.9484 4.75 36.6484 4.75C38.3151 4.75 39.9484 4.73333 41.5484 4.7C43.1484 4.66667 44.4651 4.63333 45.4984 4.6ZM54.3488 40.35C52.7822 40.35 51.4988 40.05 50.4988 39.45C49.4988 38.85 48.7655 38.0667 48.2988 37.1C47.8655 36.1333 47.6488 35.1167 47.6488 34.05C47.6488 32.65 47.9655 31.5167 48.5988 30.65C49.2322 29.75 50.0488 29.0333 51.0488 28.5C52.0822 27.9333 53.1655 27.4667 54.2988 27.1C55.4322 26.7333 56.4988 26.3833 57.4988 26.05C58.5322 25.6833 59.3655 25.2667 59.9988 24.8C60.6322 24.3 60.9488 23.6667 60.9488 22.9V18.45C60.9488 17.9167 60.8488 17.3333 60.6488 16.7C60.4822 16.0667 60.1488 15.5167 59.6488 15.05C59.1488 14.5833 58.3988 14.35 57.3988 14.35C56.8655 14.35 56.3488 14.4333 55.8488 14.6C55.3822 14.7333 54.9655 14.9333 54.5988 15.2C55.7655 15.6333 56.6155 16.25 57.1488 17.05C57.6822 17.8167 57.9488 18.6667 57.9488 19.6C57.9488 20.9333 57.4822 21.9833 56.5488 22.75C55.6155 23.5167 54.5155 23.9 53.2488 23.9C51.9155 23.9 50.8822 23.4833 50.1488 22.65C49.4155 21.8167 49.0488 20.7833 49.0488 19.55C49.0488 18.5167 49.2988 17.65 49.7988 16.95C50.3322 16.2167 51.1155 15.55 52.1488 14.95C53.1488 14.3833 54.3488 13.9833 55.7488 13.75C57.1488 13.4833 58.6155 13.35 60.1488 13.35C61.7822 13.35 63.2988 13.5167 64.6988 13.85C66.0988 14.15 67.2988 14.8167 68.2988 15.85C68.9988 16.5833 69.4488 17.5 69.6488 18.6C69.8488 19.7 69.9488 21.1167 69.9488 22.85V36.25C69.9488 37.0833 69.9988 37.65 70.0988 37.95C70.2322 38.25 70.4488 38.4 70.7488 38.4C71.0155 38.4 71.2655 38.3167 71.4988 38.15C71.7655 37.9833 72.0155 37.8167 72.2488 37.65L72.7488 38.5C72.0155 39.1333 71.0988 39.6 69.9988 39.9C68.9322 40.2 67.7988 40.35 66.5988 40.35C65.1655 40.35 64.0488 40.1833 63.2488 39.85C62.4822 39.4833 61.9322 39.0167 61.5988 38.45C61.2988 37.85 61.1322 37.2167 61.0988 36.55C60.3988 37.65 59.5155 38.5667 58.4488 39.3C57.4155 40 56.0488 40.35 54.3488 40.35ZM59.0988 36.35C59.4655 36.35 59.7822 36.3 60.0488 36.2C60.3488 36.0667 60.6488 35.8333 60.9488 35.5V24.95C60.7155 25.3833 60.3988 25.8167 59.9988 26.25C59.6322 26.65 59.2488 27.0667 58.8488 27.5C58.4488 27.9333 58.0655 28.4 57.6988 28.9C57.3655 29.4 57.0822 29.9833 56.8488 30.65C56.6488 31.2833 56.5488 32.0333 56.5488 32.9C56.5488 34.1667 56.7822 35.0667 57.2488 35.6C57.7488 36.1 58.3655 36.35 59.0988 36.35ZM99.9613 0.899997V34.5C99.9613 36 100.161 37.1167 100.561 37.85C100.995 38.55 101.728 38.9 102.761 38.9V39.95C101.728 39.85 100.695 39.8 99.6613 39.8C97.9947 39.8 96.4447 39.85 95.0113 39.95C93.578 40.05 92.228 40.2333 90.9613 40.5V6.9C90.9613 5.4 90.7613 4.3 90.3613 3.6C89.9613 2.86666 89.228 2.5 88.1613 2.5V1.45C89.228 1.55 90.2613 1.6 91.2613 1.6C92.928 1.6 94.478 1.55 95.9113 1.45C97.378 1.31667 98.728 1.13333 99.9613 0.899997ZM85.7613 13.35C87.228 13.35 88.4613 13.5333 89.4613 13.9C90.4613 14.2333 91.3447 14.7833 92.1113 15.55L91.5613 16.1C91.128 15.7333 90.6447 15.4667 90.1113 15.3C89.578 15.1 89.078 15 88.6113 15C87.078 15 85.928 15.9833 85.1613 17.95C84.3947 19.9167 84.0113 22.9333 84.0113 27C84.0113 29.9333 84.1613 32.2167 84.4613 33.85C84.7613 35.45 85.1613 36.5667 85.6613 37.2C86.1947 37.8 86.7613 38.1 87.3613 38.1C88.2947 38.1 89.128 37.7667 89.8613 37.1C90.5947 36.4 90.9613 35.5333 90.9613 34.5V36.95C90.2947 38.2167 89.478 39.1667 88.5113 39.8C87.5447 40.4 86.328 40.7 84.8613 40.7C82.9613 40.7 81.228 40.2333 79.6613 39.3C78.128 38.3333 76.9113 36.8333 76.0113 34.8C75.1113 32.7667 74.6613 30.1167 74.6613 26.85C74.6613 23.8167 75.1113 21.3167 76.0113 19.35C76.9447 17.35 78.2447 15.85 79.9113 14.85C81.578 13.85 83.528 13.35 85.7613 13.35ZM116.28 0.899997V17.1C117.08 15.7667 118.147 14.8167 119.48 14.25C120.847 13.65 122.43 13.35 124.23 13.35C125.763 13.35 126.963 13.55 127.83 13.95C128.73 14.3167 129.413 14.7833 129.88 15.35C130.38 15.95 130.747 16.75 130.98 17.75C131.213 18.75 131.33 20.1 131.33 21.8V35.35C131.33 36.75 131.53 37.7 131.93 38.2C132.363 38.7 133.097 38.95 134.13 38.95V40C133.463 39.9667 132.447 39.9333 131.08 39.9C129.747 39.8333 128.43 39.8 127.13 39.8C125.73 39.8 124.363 39.8333 123.03 39.9C121.697 39.9333 120.697 39.9667 120.03 40V38.95C120.897 38.95 121.497 38.7 121.83 38.2C122.163 37.7 122.33 36.75 122.33 35.35V19.1C122.33 18.4 122.247 17.8167 122.08 17.35C121.913 16.8833 121.647 16.5333 121.28 16.3C120.947 16.0667 120.48 15.95 119.88 15.95C119.28 15.95 118.697 16.1 118.13 16.4C117.597 16.7 117.147 17.1333 116.78 17.7C116.447 18.2333 116.28 18.85 116.28 19.55V35.35C116.28 36.75 116.447 37.7 116.78 38.2C117.147 38.7 117.747 38.95 118.58 38.95V40C117.947 39.9667 117.013 39.9333 115.78 39.9C114.547 39.8333 113.28 39.8 111.98 39.8C110.58 39.8 109.163 39.8333 107.73 39.9C106.297 39.9333 105.213 39.9667 104.48 40V38.95C105.513 38.95 106.23 38.7 106.63 38.2C107.063 37.7 107.28 36.75 107.28 35.35V6.9C107.28 5.4 107.08 4.3 106.68 3.6C106.28 2.86666 105.547 2.5 104.48 2.5V1.45C105.547 1.55 106.58 1.6 107.58 1.6C109.247 1.6 110.797 1.55 112.23 1.45C113.697 1.31667 115.047 1.13333 116.28 0.899997ZM162.084 13.5V34.55C162.084 36.05 162.284 37.1667 162.684 37.9C163.117 38.6 163.85 38.95 164.884 38.95V40C163.85 39.9 162.817 39.85 161.784 39.85C160.117 39.85 158.567 39.9 157.134 40C155.7 40.1 154.35 40.2833 153.084 40.55V36.95C152.284 38.2833 151.2 39.25 149.834 39.85C148.5 40.4167 146.934 40.7 145.134 40.7C143.6 40.7 142.384 40.5 141.484 40.1C140.617 39.7333 139.95 39.2667 139.484 38.7C138.984 38.1 138.617 37.3 138.384 36.3C138.15 35.3 138.034 33.95 138.034 32.25V19.5C138.034 18 137.834 16.9 137.434 16.2C137.034 15.4667 136.3 15.1 135.234 15.1V14.05C136.3 14.15 137.334 14.2 138.334 14.2C140 14.2 141.55 14.15 142.984 14.05C144.45 13.9167 145.8 13.7333 147.034 13.5V34.95C147.034 35.65 147.117 36.2333 147.284 36.7C147.45 37.1667 147.717 37.5167 148.084 37.75C148.45 37.9833 148.917 38.1 149.484 38.1C150.117 38.1 150.7 37.95 151.234 37.65C151.767 37.35 152.2 36.9333 152.534 36.4C152.9 35.8333 153.084 35.2 153.084 34.5V19.5C153.084 18 152.884 16.9 152.484 16.2C152.084 15.4667 151.35 15.1 150.284 15.1V14.05C151.35 14.15 152.384 14.2 153.384 14.2C155.05 14.2 156.6 14.15 158.034 14.05C159.5 13.9167 160.85 13.7333 162.084 13.5ZM177.337 13.35C178.804 13.35 180.087 13.5167 181.187 13.85C182.32 14.15 183.137 14.4333 183.637 14.7C184.804 15.4 185.52 14.9667 185.787 13.4H186.787C186.72 14.3667 186.67 15.55 186.637 16.95C186.604 18.3167 186.587 20.1333 186.587 22.4H185.587C185.454 21.1667 185.154 19.95 184.687 18.75C184.254 17.55 183.604 16.55 182.737 15.75C181.904 14.95 180.804 14.55 179.437 14.55C178.604 14.55 177.904 14.8 177.337 15.3C176.77 15.8 176.487 16.4833 176.487 17.35C176.487 18.35 176.787 19.25 177.387 20.05C177.987 20.8167 178.754 21.5667 179.687 22.3C180.62 23 181.554 23.75 182.487 24.55C183.52 25.3833 184.437 26.2 185.237 27C186.037 27.8 186.67 28.6833 187.137 29.65C187.637 30.5833 187.887 31.7 187.887 33C187.887 34.5 187.42 35.8333 186.487 37C185.587 38.1667 184.37 39.0833 182.837 39.75C181.337 40.3833 179.654 40.7 177.787 40.7C176.62 40.7 175.604 40.5667 174.737 40.3C173.87 40.0667 173.17 39.7833 172.637 39.45C172.104 39.1833 171.637 38.9833 171.237 38.85C170.87 38.6833 170.504 38.6 170.137 38.6C169.804 38.6 169.52 38.7833 169.287 39.15C169.054 39.4833 168.87 39.8833 168.737 40.35H167.737C167.804 39.2833 167.854 37.9833 167.887 36.45C167.92 34.9167 167.937 32.8833 167.937 30.35H168.937C169.137 32.1167 169.52 33.6833 170.087 35.05C170.687 36.4167 171.437 37.5 172.337 38.3C173.27 39.0667 174.337 39.45 175.537 39.45C176.07 39.45 176.554 39.35 176.987 39.15C177.42 38.95 177.77 38.65 178.037 38.25C178.304 37.85 178.437 37.3333 178.437 36.7C178.437 35.2333 177.987 34 177.087 33C176.22 32 175.12 30.9 173.787 29.7C172.787 28.7667 171.837 27.8667 170.937 27C170.07 26.1 169.354 25.1333 168.787 24.1C168.22 23.0333 167.937 21.85 167.937 20.55C167.937 19.05 168.37 17.7667 169.237 16.7C170.137 15.6333 171.304 14.8167 172.737 14.25C174.17 13.65 175.704 13.35 177.337 13.35ZM202.071 0.899997V17.1C202.871 15.7667 203.938 14.8167 205.271 14.25C206.638 13.65 208.221 13.35 210.021 13.35C211.554 13.35 212.754 13.55 213.621 13.95C214.521 14.3167 215.204 14.7833 215.671 15.35C216.171 15.95 216.538 16.75 216.771 17.75C217.004 18.75 217.121 20.1 217.121 21.8V35.35C217.121 36.75 217.321 37.7 217.721 38.2C218.154 38.7 218.888 38.95 219.921 38.95V40C219.254 39.9667 218.238 39.9333 216.871 39.9C215.538 39.8333 214.221 39.8 212.921 39.8C211.521 39.8 210.154 39.8333 208.821 39.9C207.488 39.9333 206.488 39.9667 205.821 40V38.95C206.688 38.95 207.288 38.7 207.621 38.2C207.954 37.7 208.121 36.75 208.121 35.35V19.1C208.121 18.4 208.038 17.8167 207.871 17.35C207.704 16.8833 207.438 16.5333 207.071 16.3C206.738 16.0667 206.271 15.95 205.671 15.95C205.071 15.95 204.488 16.1 203.921 16.4C203.388 16.7 202.938 17.1333 202.571 17.7C202.238 18.2333 202.071 18.85 202.071 19.55V35.35C202.071 36.75 202.238 37.7 202.571 38.2C202.938 38.7 203.538 38.95 204.371 38.95V40C203.738 39.9667 202.804 39.9333 201.571 39.9C200.338 39.8333 199.071 39.8 197.771 39.8C196.371 39.8 194.954 39.8333 193.521 39.9C192.088 39.9333 191.004 39.9667 190.271 40V38.95C191.304 38.95 192.021 38.7 192.421 38.2C192.854 37.7 193.071 36.75 193.071 35.35V6.9C193.071 5.4 192.871 4.3 192.471 3.6C192.071 2.86666 191.338 2.5 190.271 2.5V1.45C191.338 1.55 192.371 1.6 193.371 1.6C195.038 1.6 196.588 1.55 198.021 1.45C199.488 1.31667 200.838 1.13333 202.071 0.899997ZM239.775 13.35C240.975 13.35 241.908 13.6167 242.575 14.15C243.241 14.65 243.708 15.3 243.975 16.1C244.241 16.8667 244.375 17.6333 244.375 18.4C244.375 19.9 243.941 21.1 243.075 22C242.241 22.8667 241.141 23.3 239.775 23.3C238.308 23.3 237.191 22.9667 236.425 22.3C235.691 21.6333 235.325 20.7667 235.325 19.7C235.325 18.5667 235.558 17.6333 236.025 16.9C236.525 16.1667 237.141 15.55 237.875 15.05C237.275 15.05 236.741 15.1667 236.275 15.4C235.875 15.5667 235.491 15.8 235.125 16.1C234.758 16.4 234.441 16.75 234.175 17.15C233.908 17.5167 233.691 17.9333 233.525 18.4C233.391 18.8667 233.325 19.35 233.325 19.85V34.85C233.325 36.45 233.658 37.5333 234.325 38.1C234.991 38.6667 236.091 38.95 237.625 38.95V40C236.858 39.9667 235.708 39.9333 234.175 39.9C232.675 39.8333 231.125 39.8 229.525 39.8C228.025 39.8 226.508 39.8333 224.975 39.9C223.441 39.9333 222.291 39.9667 221.525 40V38.95C222.558 38.95 223.275 38.7 223.675 38.2C224.108 37.7 224.325 36.75 224.325 35.35V19.5C224.325 18 224.125 16.9 223.725 16.2C223.325 15.4667 222.591 15.1 221.525 15.1V14.05C222.591 14.15 223.625 14.2 224.625 14.2C226.291 14.2 227.841 14.15 229.275 14.05C230.741 13.9167 232.091 13.7333 233.325 13.5V17.1C233.758 16.2333 234.291 15.5333 234.925 15C235.558 14.4333 236.275 14.0167 237.075 13.75C237.908 13.4833 238.808 13.35 239.775 13.35ZM258.459 13.35C261.392 13.35 263.692 14.2167 265.359 15.95C267.059 17.65 267.909 20.5167 267.909 24.55H252.259L252.159 23.6H260.609C260.642 21.9667 260.575 20.4667 260.409 19.1C260.242 17.7 259.975 16.5833 259.609 15.75C259.242 14.9167 258.742 14.5 258.109 14.5C257.209 14.5 256.475 15.2167 255.909 16.65C255.342 18.05 254.975 20.4667 254.809 23.9L255.009 24.3C254.975 24.6333 254.959 24.9667 254.959 25.3C254.959 25.6333 254.959 25.9833 254.959 26.35C254.959 28.6833 255.242 30.5 255.809 31.8C256.409 33.1 257.142 34 258.009 34.5C258.909 35 259.809 35.25 260.709 35.25C261.175 35.25 261.725 35.1833 262.359 35.05C263.025 34.9167 263.742 34.6167 264.509 34.15C265.275 33.65 266.025 32.9 266.759 31.9L267.609 32.2C267.209 33.5333 266.559 34.8667 265.659 36.2C264.792 37.5 263.659 38.5833 262.259 39.45C260.859 40.2833 259.159 40.7 257.159 40.7C255.025 40.7 253.075 40.2667 251.309 39.4C249.575 38.5333 248.192 37.1 247.159 35.1C246.125 33.1 245.609 30.4167 245.609 27.05C245.609 23.85 246.175 21.25 247.309 19.25C248.442 17.2167 249.975 15.7333 251.909 14.8C253.875 13.8333 256.059 13.35 258.459 13.35ZM283.605 13.35C286.538 13.35 288.838 14.2167 290.505 15.95C292.205 17.65 293.055 20.5167 293.055 24.55H277.405L277.305 23.6H285.755C285.788 21.9667 285.722 20.4667 285.555 19.1C285.388 17.7 285.122 16.5833 284.755 15.75C284.388 14.9167 283.888 14.5 283.255 14.5C282.355 14.5 281.622 15.2167 281.055 16.65C280.488 18.05 280.122 20.4667 279.955 23.9L280.155 24.3C280.122 24.6333 280.105 24.9667 280.105 25.3C280.105 25.6333 280.105 25.9833 280.105 26.35C280.105 28.6833 280.388 30.5 280.955 31.8C281.555 33.1 282.288 34 283.155 34.5C284.055 35 284.955 35.25 285.855 35.25C286.322 35.25 286.872 35.1833 287.505 35.05C288.172 34.9167 288.888 34.6167 289.655 34.15C290.422 33.65 291.172 32.9 291.905 31.9L292.755 32.2C292.355 33.5333 291.705 34.8667 290.805 36.2C289.938 37.5 288.805 38.5833 287.405 39.45C286.005 40.2833 284.305 40.7 282.305 40.7C280.172 40.7 278.222 40.2667 276.455 39.4C274.722 38.5333 273.338 37.1 272.305 35.1C271.272 33.1 270.755 30.4167 270.755 27.05C270.755 23.85 271.322 21.25 272.455 19.25C273.588 17.2167 275.122 15.7333 277.055 14.8C279.022 13.8333 281.205 13.35 283.605 13.35Z" fill="url(#paint0_linear_1532_339)"/>
<defs>
<linearGradient id="paint0_linear_1532_339" x1="-14" y1="19" x2="307" y2="19" gradientUnits="userSpaceOnUse">
<stop stop-color="#FD3907"/>
<stop offset="0.432391" stop-color="#4C2C81"/>
<stop offset="0.76" stop-color="#8F25BC"/>
<stop offset="1" stop-color="#F7DF1E"/>
</linearGradient>
</defs>
</svg>
